<?xml version="1.0" encoding="utf-8"?>
<!-- Generator: Adobe Illustrator 17.0.0, SVG Export Plug-In . SVG Version: 6.00 Build 0)  -->
<!DOCTYPE svg PUBLIC "-//W3C//DTD SVG 1.1//EN" "http://www.w3.org/Graphics/SVG/1.1/DTD/svg11.dtd">
<svg version="1.1" id="图层_1" xmlns="http://www.w3.org/2000/svg" xmlns:xlink="http://www.w3.org/1999/xlink" x="0px" y="0px"
	 width="120px" height="120px" viewBox="0 0 120 120" enable-background="new 0 0 120 120" xml:space="preserve">
<g enable-background="new    ">
	<path fill="#ffffff" d="M54.213,79.884c0,1.994,0.728,3.721,2.187,5.178c1.457,1.458,3.183,2.187,5.178,2.187h14.729v13.692
		c-2.608,1.918-5.888,2.877-9.838,2.877H16.183c-4.642,0-8.362-1.323-11.162-3.97c-2.8-2.646-4.2-6.29-4.2-10.932
		c0-2.032,0.066-4.018,0.201-5.955c0.134-1.936,0.403-4.027,0.806-6.271c0.403-2.244,0.911-4.324,1.525-6.243
		c0.613-1.917,1.438-3.787,2.474-5.609c1.036-1.821,2.224-3.374,3.567-4.66c1.342-1.284,2.982-2.311,4.919-3.078
		c1.937-0.767,4.075-1.15,6.415-1.15c0.728,0,1.476,0.326,2.244,0.978c3.03,2.341,5.993,4.096,8.889,5.265
		c2.896,1.171,6.05,1.755,9.464,1.755c3.414,0,6.568-0.584,9.464-1.755c2.896-1.169,5.858-2.924,8.889-5.265
		c0.767-0.651,1.515-0.978,2.244-0.978c5.063,0,9.224,1.841,12.484,5.523h-12.83c-1.995,0-3.721,0.729-5.178,2.187
		c-1.458,1.458-2.187,3.184-2.187,5.178V79.884z M56.946,53.159c-4.315,4.314-9.522,6.472-15.621,6.472s-11.305-2.157-15.621-6.472
		c-4.315-4.315-6.472-9.522-6.472-15.621s2.157-11.305,6.472-15.62c4.315-4.315,9.522-6.473,15.621-6.473s11.306,2.157,15.621,6.473
		c4.315,4.315,6.472,9.521,6.472,15.62S61.261,48.844,56.946,53.159z M96.558,66.996h20.252c0.498,0,0.93,0.182,1.295,0.546
		c0.364,0.365,0.547,0.797,0.547,1.295v11.047c0,0.498-0.183,0.93-0.547,1.294c-0.365,0.365-0.797,0.547-1.295,0.547H96.558v20.252
		c0,0.498-0.183,0.93-0.546,1.294c-0.365,0.364-0.797,0.547-1.295,0.547H83.67c-0.499,0-0.93-0.183-1.294-0.547
		c-0.365-0.364-0.547-0.796-0.547-1.294V81.725H61.577c-0.499,0-0.93-0.182-1.294-0.547c-0.365-0.364-0.546-0.796-0.546-1.294
		V68.837c0-0.498,0.182-0.93,0.546-1.295c0.365-0.364,0.795-0.546,1.294-0.546h20.252V46.744c0-0.498,0.182-0.93,0.547-1.295
		c0.364-0.364,0.795-0.547,1.294-0.547h11.047c0.498,0,0.93,0.183,1.295,0.547c0.363,0.365,0.546,0.797,0.546,1.295V66.996z"/>
</g>
</svg>
