<?xml version="1.0" encoding="utf-8"?>
<!-- Generator: Adobe Illustrator 17.0.0, SVG Export Plug-In . SVG Version: 6.00 Build 0)  -->
<!DOCTYPE svg PUBLIC "-//W3C//DTD SVG 1.1//EN" "http://www.w3.org/Graphics/SVG/1.1/DTD/svg11.dtd">
<svg version="1.1" id="图层_1" xmlns="http://www.w3.org/2000/svg" xmlns:xlink="http://www.w3.org/1999/xlink" x="0px" y="0px"
	 width="120px" height="120px" viewBox="0 0 120 120" enable-background="new 0 0 120 120" xml:space="preserve">
<g enable-background="new    ">
	<path fill="#ffffff" d="M40.701,44.709l-3.639,21.621h7.421l-3.639-21.621H40.701L40.701,44.709z
		 M60.32,0.126c-32.841,0-59.465,26.623-59.465,59.465c0,32.842,26.623,59.465,59.465,59.465c32.842,0,59.465-26.623,59.465-59.465
		S93.162,0.126,60.32,0.126L60.32,0.126z M47.408,85.24l-1.356-8.92H35.492l-1.356,8.92H20.221l12.202-50.95h16.698l12.416,50.95
		H47.408L47.408,85.24z M97.763,69.363c-0.239,3.068-0.892,5.78-1.963,8.135c-1.07,2.355-2.676,4.234-4.817,5.637
		c-2.14,1.404-5.138,2.105-8.99,2.105H62.726v-50.95h19.267c3.853,0,6.85,0.702,8.99,2.105c2.141,1.403,3.747,3.282,4.817,5.638
		c1.07,2.354,1.724,5.066,1.963,8.135c0.237,3.068,0.356,6.268,0.356,9.597C98.119,63.096,98,66.295,97.763,69.363L97.763,69.363z
		 M83.456,46.636c-0.405-1.142-0.988-1.891-1.748-2.248c-0.761-0.357-1.784-0.535-3.068-0.535h-2.64v31.826h2.64
		c1.285,0,2.307-0.178,3.068-0.535c0.761-0.357,1.344-1.106,1.748-2.248c0.404-1.142,0.666-2.758,0.785-4.852
		c0.118-2.093,0.179-4.852,0.179-8.277c0-3.425-0.06-6.183-0.179-8.277C84.122,49.396,83.859,47.778,83.456,46.636L83.456,46.636
		L83.456,46.636z"/>
</g>
</svg>
