<?xml version="1.0" encoding="utf-8"?>
<!-- Generator: Adobe Illustrator 17.0.0, SVG Export Plug-In . SVG Version: 6.00 Build 0)  -->
<!DOCTYPE svg PUBLIC "-//W3C//DTD SVG 1.1//EN" "http://www.w3.org/Graphics/SVG/1.1/DTD/svg11.dtd">
<svg version="1.1" id="图层_1" xmlns="http://www.w3.org/2000/svg" xmlns:xlink="http://www.w3.org/1999/xlink" x="0px" y="0px"
	 width="120px" height="120px" viewBox="0 0 120 120" enable-background="new 0 0 120 120" xml:space="preserve">
<g enable-background="new    ">
	<path fill="#ffffff" d="M118.249,73.024c0,11.239-3.036,21.639-9.107,31.198c-0.818,1.249-1.981,1.873-3.488,1.873H15.095
		c-1.508,0-2.67-0.624-3.488-1.873C5.535,94.706,2.5,84.307,2.5,73.024c0-7.837,1.528-15.329,4.586-22.478
		c3.057-7.147,7.17-13.306,12.337-18.473s11.325-9.279,18.474-12.337c7.147-3.057,14.64-4.586,22.478-4.586
		c7.836,0,15.33,1.529,22.478,4.586c7.147,3.058,13.306,7.169,18.474,12.337c5.167,5.167,9.278,11.326,12.337,18.473
		C116.72,57.696,118.249,65.188,118.249,73.024z M24.881,78.87c1.615-1.615,2.422-3.563,2.422-5.846c0-2.282-0.808-4.23-2.422-5.846
		c-1.615-1.614-3.563-2.422-5.846-2.422c-2.283,0-4.231,0.808-5.846,2.422c-1.615,1.615-2.422,3.563-2.422,5.846
		c0,2.283,0.807,4.23,2.422,5.846s3.563,2.422,5.846,2.422C21.317,81.292,23.266,80.485,24.881,78.87z M37.283,49.933
		c1.615-1.615,2.422-3.563,2.422-5.846c0-2.282-0.808-4.23-2.422-5.846c-1.615-1.615-3.564-2.422-5.846-2.422
		c-2.283,0-4.231,0.807-5.846,2.422c-1.615,1.615-2.422,3.563-2.422,5.846c0,2.283,0.808,4.23,2.422,5.846s3.563,2.422,5.846,2.422
		C33.719,52.355,35.668,51.548,37.283,49.933z M67.35,75.156l6.524-24.674c0.258-1.119,0.097-2.164-0.484-3.133
		c-0.582-0.969-1.411-1.604-2.487-1.905c-1.076-0.301-2.11-0.161-3.101,0.42s-1.637,1.433-1.938,2.552l-6.523,24.673
		c-2.583,0.216-4.888,1.153-6.911,2.81c-2.024,1.659-3.381,3.779-4.069,6.363c-0.862,3.316-0.431,6.459,1.292,9.43
		c1.722,2.972,4.241,4.889,7.557,5.749c3.315,0.861,6.458,0.43,9.43-1.292c2.971-1.722,4.887-4.24,5.749-7.557
		c0.688-2.584,0.559-5.104-0.388-7.558C71.053,78.579,69.503,76.62,67.35,75.156z M66.22,37.531
		c1.615-1.615,2.422-3.563,2.422-5.846c0-2.282-0.807-4.23-2.422-5.845c-1.615-1.615-3.563-2.422-5.845-2.422
		c-2.283,0-4.231,0.807-5.846,2.422c-1.615,1.615-2.422,3.563-2.422,5.845c0,2.283,0.808,4.231,2.422,5.846s3.563,2.422,5.846,2.422
		C62.656,39.954,64.604,39.146,66.22,37.531z M95.157,49.933c1.615-1.615,2.422-3.563,2.422-5.846c0-2.282-0.807-4.23-2.422-5.846
		c-1.615-1.615-3.563-2.422-5.846-2.422c-2.283,0-4.23,0.807-5.846,2.422c-1.614,1.615-2.422,3.563-2.422,5.846
		c0,2.283,0.808,4.23,2.422,5.846c1.615,1.615,3.563,2.422,5.846,2.422C91.594,52.355,93.542,51.548,95.157,49.933z M107.559,78.87
		c1.615-1.615,2.423-3.563,2.423-5.846c0-2.282-0.808-4.23-2.423-5.846c-1.614-1.614-3.563-2.422-5.846-2.422
		s-4.23,0.808-5.845,2.422c-1.615,1.615-2.423,3.563-2.423,5.846c0,2.283,0.808,4.23,2.423,5.846
		c1.614,1.615,3.563,2.422,5.845,2.422S105.944,80.485,107.559,78.87z"/>
</g>
</svg>
