<?xml version="1.0" encoding="utf-8"?>
<!-- Generator: Adobe Illustrator 17.0.0, SVG Export Plug-In . SVG Version: 6.00 Build 0)  -->
<!DOCTYPE svg PUBLIC "-//W3C//DTD SVG 1.1//EN" "http://www.w3.org/Graphics/SVG/1.1/DTD/svg11.dtd">
<svg version="1.1" id="图层_1" xmlns="http://www.w3.org/2000/svg" xmlns:xlink="http://www.w3.org/1999/xlink" x="0px" y="0px"
	 width="120px" height="120px" viewBox="0 0 120 120" enable-background="new 0 0 120 120" xml:space="preserve">
<g enable-background="new    ">
	<path fill="#fff" d="M108.814,13.716c2.699,0,5.01,0.962,6.933,2.884c1.922,1.923,2.884,4.233,2.884,6.933v74.605
		c0,2.699-0.962,5.01-2.884,6.933c-1.923,1.922-4.233,2.884-6.933,2.884H10.65c-2.699,0-5.011-0.962-6.933-2.884
		c-1.923-1.923-2.884-4.233-2.884-6.933V23.533c0-2.7,0.96-5.01,2.884-6.933c1.922-1.922,4.233-2.884,6.933-2.884H108.814z
		 M10.65,21.57c-0.532,0-0.992,0.194-1.38,0.583c-0.389,0.39-0.583,0.85-0.583,1.381v13.743h102.091V23.533
		c0-0.531-0.194-0.991-0.583-1.381c-0.389-0.388-0.849-0.583-1.38-0.583H10.65z M108.814,100.102c0.531,0,0.991-0.193,1.38-0.583
		c0.389-0.388,0.583-0.849,0.583-1.38V60.836H8.687v37.303c0,0.531,0.194,0.992,0.583,1.38c0.388,0.39,0.849,0.583,1.38,0.583
		H108.814z M16.54,92.248v-7.853h15.706v7.853H16.54z M40.1,92.248v-7.853h23.559v7.853H40.1z"/>
</g>
</svg>
