<?xml version="1.0" encoding="utf-8"?>
<!-- Generator: Adobe Illustrator 17.0.0, SVG Export Plug-In . SVG Version: 6.00 Build 0)  -->
<!DOCTYPE svg PUBLIC "-//W3C//DTD SVG 1.1//EN" "http://www.w3.org/Graphics/SVG/1.1/DTD/svg11.dtd">
<svg version="1.1" id="图层_1" xmlns="http://www.w3.org/2000/svg" xmlns:xlink="http://www.w3.org/1999/xlink" x="0px" y="0px"
	 width="120px" height="120px" viewBox="0 0 120 120" enable-background="new 0 0 120 120" xml:space="preserve">
<g enable-background="new    ">
	<path fill="#ffffff" d="M119.064,36.239v25.147H1.71V36.239c0-2.882,1.025-5.348,3.078-7.4c2.051-2.052,4.519-3.078,7.4-3.078
		H35.24V15.283c0-1.746,0.611-3.23,1.834-4.453c1.222-1.222,2.707-1.833,4.453-1.833h37.721c1.746,0,3.23,0.612,4.453,1.833
		c1.222,1.223,1.834,2.708,1.834,4.453v10.479h23.052c2.881,0,5.348,1.026,7.4,3.078C118.038,30.892,119.064,33.357,119.064,36.239z
		 M119.064,67.674v31.434c0,2.882-1.026,5.349-3.077,7.4c-2.053,2.053-4.52,3.078-7.4,3.078H12.188c-2.881,0-5.349-1.025-7.4-3.078
		c-2.053-2.052-3.078-4.519-3.078-7.4V67.674h44.008v10.478c0,1.136,0.414,2.118,1.244,2.947c0.829,0.83,1.811,1.244,2.947,1.244
		h20.956c1.135,0,2.117-0.414,2.947-1.244c0.829-0.829,1.244-1.812,1.244-2.947V67.674H119.064z M43.623,25.761h33.53v-8.383h-33.53
		V25.761z M68.77,67.674v8.382H52.005v-8.382H68.77z"/>
</g>
</svg>
