<?xml version="1.0" encoding="utf-8"?>
<!-- Generator: Adobe Illustrator 17.0.0, SVG Export Plug-In . SVG Version: 6.00 Build 0)  -->
<!DOCTYPE svg PUBLIC "-//W3C//DTD SVG 1.1//EN" "http://www.w3.org/Graphics/SVG/1.1/DTD/svg11.dtd">
<svg version="1.1" id="图层_1" xmlns="http://www.w3.org/2000/svg" xmlns:xlink="http://www.w3.org/1999/xlink" x="0px" y="0px"
	 width="120px" height="120px" viewBox="0 0 120 120" enable-background="new 0 0 120 120" xml:space="preserve">
<g enable-background="new    ">
	<path fill="#ffffff" d="M119.351,24.167v71.958c0,2.91-1.037,5.401-3.109,7.474c-2.072,2.073-4.563,3.108-7.473,3.108H11.413
		c-2.91,0-5.401-1.035-7.474-3.108c-2.073-2.072-3.108-4.563-3.108-7.474V24.167c0-2.91,1.036-5.4,3.108-7.474
		c2.072-2.072,4.563-3.108,7.474-3.108h97.355c2.909,0,5.4,1.037,7.473,3.108C118.313,18.766,119.351,21.256,119.351,24.167z
		 M110.885,96.124V41.098c0-0.572-0.21-1.068-0.629-1.488c-0.419-0.419-0.915-0.628-1.487-0.628H11.413
		c-0.574,0-1.069,0.209-1.488,0.628c-0.419,0.419-0.628,0.916-0.628,1.488v55.026c0,0.573,0.208,1.069,0.628,1.488
		c0.419,0.419,0.915,0.628,1.488,0.628h97.355c0.572,0,1.068-0.209,1.487-0.628S110.885,96.697,110.885,96.124z M26.228,49.563
		v4.233c0,0.573-0.21,1.069-0.628,1.488c-0.419,0.419-0.916,0.628-1.488,0.628h-4.233c-0.574,0-1.07-0.209-1.488-0.628
		c-0.419-0.419-0.628-0.915-0.628-1.488v-4.233c0-0.572,0.209-1.068,0.628-1.487c0.418-0.419,0.915-0.629,1.488-0.629h4.233
		c0.572,0,1.068,0.21,1.488,0.629C26.018,48.495,26.228,48.991,26.228,49.563z M26.228,66.494v4.232c0,0.574-0.21,1.07-0.628,1.488
		c-0.419,0.42-0.916,0.629-1.488,0.629h-4.233c-0.574,0-1.07-0.209-1.488-0.629c-0.419-0.418-0.628-0.914-0.628-1.488v-4.232
		c0-0.572,0.209-1.068,0.628-1.488c0.418-0.418,0.915-0.628,1.488-0.628h4.233c0.572,0,1.068,0.21,1.488,0.628
		C26.018,65.426,26.228,65.922,26.228,66.494z M26.228,83.426v4.232c0,0.573-0.21,1.069-0.628,1.488
		c-0.419,0.42-0.916,0.628-1.488,0.628h-4.233c-0.574,0-1.07-0.208-1.488-0.628c-0.419-0.419-0.628-0.915-0.628-1.488v-4.232
		c0-0.573,0.209-1.068,0.628-1.488c0.418-0.419,0.915-0.628,1.488-0.628h4.233c0.572,0,1.068,0.209,1.488,0.628
		C26.018,82.357,26.228,82.853,26.228,83.426z M102.419,49.563v4.233c0,0.573-0.21,1.069-0.628,1.488
		c-0.42,0.419-0.916,0.628-1.488,0.628H36.81c-0.574,0-1.069-0.209-1.488-0.628c-0.419-0.419-0.628-0.915-0.628-1.488v-4.233
		c0-0.572,0.208-1.068,0.628-1.487c0.419-0.419,0.915-0.629,1.488-0.629h63.493c0.572,0,1.068,0.21,1.488,0.629
		C102.209,48.495,102.419,48.991,102.419,49.563z M102.419,66.494v4.232c0,0.574-0.21,1.07-0.628,1.488
		c-0.42,0.42-0.916,0.629-1.488,0.629H36.81c-0.574,0-1.069-0.209-1.488-0.629c-0.419-0.418-0.628-0.914-0.628-1.488v-4.232
		c0-0.572,0.208-1.068,0.628-1.488c0.419-0.418,0.915-0.628,1.488-0.628h63.493c0.572,0,1.068,0.21,1.488,0.628
		C102.209,65.426,102.419,65.922,102.419,66.494z M102.419,83.426v4.232c0,0.573-0.21,1.069-0.628,1.488
		c-0.42,0.42-0.916,0.628-1.488,0.628H36.81c-0.574,0-1.069-0.208-1.488-0.628c-0.419-0.419-0.628-0.915-0.628-1.488v-4.232
		c0-0.573,0.208-1.068,0.628-1.488c0.419-0.419,0.915-0.628,1.488-0.628h63.493c0.572,0,1.068,0.209,1.488,0.628
		C102.209,82.357,102.419,82.853,102.419,83.426z"/>
</g>
</svg>
