<?xml version="1.0" encoding="utf-8"?>
<!-- Generator: Adobe Illustrator 17.0.0, SVG Export Plug-In . SVG Version: 6.00 Build 0)  -->
<!DOCTYPE svg PUBLIC "-//W3C//DTD SVG 1.1//EN" "http://www.w3.org/Graphics/SVG/1.1/DTD/svg11.dtd">
<svg version="1.1" id="图层_1" xmlns="http://www.w3.org/2000/svg" xmlns:xlink="http://www.w3.org/1999/xlink" x="0px" y="0px"
	 width="120px" height="120px" viewBox="0 0 120 120" enable-background="new 0 0 120 120" xml:space="preserve">
<g>
	<path fill="#ffffff" fill-rule="evenodd" clip-rule="evenodd" d="M90.898,57.799c0.131,0.783,0.103,1.721-0.103,2.825
		c-0.189,1.104-0.515,2.23-0.972,3.363c-0.458,1.138-1.006,2.162-1.653,3.071c-0.646,0.915-1.373,1.561-2.145,1.95
		c-0.783,0.394-1.464,0.589-2.053,0.589c-0.583,0-1.23-0.126-1.944-0.389c-0.646-0.194-1.464-0.372-2.436-0.538
		c-0.984-0.16-1.967-0.189-2.979-0.097c-1.007,0.097-2.013,0.309-3.014,0.629c-1.001,0.32-1.876,0.881-2.579,1.658
		c-1.561,1.624-2.482,3.477-2.739,5.559c-0.257,2.082,0.034,4.06,0.881,5.947c0.646,1.304,0.549,2.597-0.292,3.9
		c-0.389,0.52-1.018,1.058-1.853,1.607c-0.847,0.555-1.779,1.058-2.779,1.515c-1.001,0.458-2.064,0.812-3.174,1.075
		c-1.104,0.252-2.076,0.383-2.928,0.383c-0.583,0-1.127-0.229-1.653-0.68c-0.515-0.458-0.869-0.949-1.075-1.464H55.31
		c-0.715-2.019-1.933-3.751-3.654-5.215c-1.721-1.464-3.717-2.196-5.999-2.196c-2.207,0-4.209,0.732-5.993,2.196
		c-1.79,1.464-3.042,3.168-3.757,5.118c-0.326,0.783-0.812,1.349-1.464,1.71c-0.641,0.355-1.355,0.532-2.139,0.532
		c-0.909,0-1.933-0.16-3.071-0.492c-1.138-0.326-2.276-0.732-3.414-1.218c-1.138-0.486-2.162-1.058-3.071-1.71
		c-0.909-0.646-1.59-1.298-2.047-1.944c-0.326-0.458-0.503-0.995-0.538-1.607c-0.034-0.617,0.212-1.481,0.732-2.585
		c0.715-1.498,0.989-3.202,0.829-5.124c-0.16-1.916-0.989-3.688-2.488-5.313c-0.909-0.978-2.013-1.607-3.311-1.899
		c-1.304-0.297-2.533-0.406-3.706-0.343c-1.367,0.063-2.762,0.326-4.192,0.783c-0.909,0.257-1.818,0.189-2.734-0.2
		c-0.715-0.257-1.378-0.858-2.002-1.796c-0.618-0.944-1.167-1.99-1.658-3.122c-0.486-1.138-0.858-2.305-1.121-3.511
		c-0.257-1.201-0.326-2.19-0.194-2.974c0.194-1.43,0.841-2.339,1.95-2.728c1.95-0.783,3.7-2.064,5.261-3.854
		c1.561-1.79,2.339-3.786,2.339-5.999c0-2.27-0.778-4.255-2.339-5.948c-1.561-1.693-3.317-2.922-5.261-3.706
		c-0.572-0.183-1.058-0.652-1.447-1.401c-0.389-0.749-0.589-1.516-0.589-2.288c0-0.846,0.131-1.79,0.389-2.831
		c0.257-1.041,0.6-2.047,1.024-3.025c0.423-0.972,0.915-1.864,1.464-2.682c0.555-0.806,1.155-1.412,1.801-1.801
		c0.52-0.326,1.029-0.452,1.516-0.389c0.486,0.063,1.024,0.195,1.607,0.389c1.95,0.784,3.98,1.024,6.096,0.732
		c2.11-0.291,3.98-1.218,5.604-2.774c0.778-0.783,1.344-1.744,1.704-2.876c0.354-1.144,0.589-2.265,0.681-3.368
		c0.103-1.104,0.103-2.11,0-3.019c-0.092-0.915-0.178-1.561-0.24-1.95c-0.131-0.389-0.246-0.846-0.343-1.367
		c-0.097-0.52-0.046-0.978,0.143-1.367c0.389-0.909,1.087-1.704,2.099-2.385c1.007-0.68,2.093-1.252,3.266-1.71
		c1.172-0.452,2.31-0.789,3.414-1.024c1.104-0.229,1.984-0.343,2.631-0.343c0.841,0,1.509,0.275,2.001,0.829
		c0.486,0.555,0.823,1.126,1.018,1.71c0.715,1.756,1.887,3.294,3.511,4.632c1.624,1.332,3.545,2.002,5.753,2.002
		c2.276,0,4.289-0.635,6.045-1.905c1.756-1.269,2.991-2.876,3.706-4.826c0.257-0.52,0.669-1.058,1.218-1.607
		c0.549-0.555,1.115-0.829,1.71-0.829c0.903,0,1.899,0.126,2.974,0.389c1.075,0.257,2.133,0.618,3.162,1.075
		c1.052,0.452,2.013,1.041,2.882,1.756c0.881,0.715,1.573,1.493,2.099,2.339c0.326,0.52,0.423,1.087,0.292,1.704
		c-0.131,0.618-0.257,1.058-0.389,1.315c-0.846,1.887-1.104,3.866-0.784,5.948c0.326,2.076,1.275,3.9,2.825,5.461
		c1.561,1.561,3.482,2.419,5.753,2.585c2.276,0.16,4.392-0.212,6.342-1.121c0.514-0.326,1.149-0.457,1.899-0.389
		c0.749,0.069,1.372,0.36,1.899,0.875c0.972,0.909,1.83,2.293,2.579,4.146c0.749,1.853,1.252,3.723,1.51,5.604
		c0.131,1.104-0.046,1.967-0.526,2.585c-0.492,0.612-0.995,1.024-1.521,1.218c-2.013,0.715-3.729,1.967-5.158,3.752
		c-1.43,1.784-2.145,3.82-2.145,6.091c0,2.213,0.6,4.146,1.796,5.804c1.207,1.653,2.779,2.842,4.723,3.557
		c0.458,0.257,0.847,0.521,1.172,0.778c0.715,0.583,1.207,1.332,1.464,2.241l0,0L90.898,57.799L90.898,57.799z M45.566,66.571
		c2.922,0,5.69-0.555,8.281-1.659c2.602-1.104,4.861-2.631,6.782-4.581c1.922-1.956,3.431-4.209,4.535-6.777
		c1.104-2.568,1.653-5.319,1.653-8.235c0-2.928-0.549-5.673-1.653-8.235c-1.104-2.568-2.613-4.815-4.535-6.731
		c-1.921-1.916-4.175-3.431-6.782-4.535c-2.591-1.104-5.364-1.659-8.281-1.659c-2.922,0-5.673,0.555-8.241,1.659
		c-2.562,1.104-4.81,2.619-6.72,4.535c-1.916,1.916-3.431,4.163-4.535,6.731c-1.104,2.562-1.658,5.312-1.658,8.235
		c0,2.922,0.555,5.667,1.658,8.235c1.104,2.562,2.619,4.821,4.535,6.777c1.916,1.95,4.163,3.471,6.725,4.581
		C39.898,66.016,42.643,66.571,45.566,66.571L45.566,66.571L45.566,66.571L45.566,66.571z"/>
	<path fill="#ffffff" fill-rule="evenodd" clip-rule="evenodd" d="M119.788,102.664c0.067,0.402,0.053,0.883-0.053,1.449
		c-0.097,0.566-0.264,1.144-0.499,1.725c-0.235,0.584-0.516,1.109-0.847,1.575c-0.331,0.469-0.704,0.801-1.1,1
		c-0.402,0.202-0.751,0.302-1.053,0.302c-0.299,0-0.63-0.065-0.997-0.199c-0.331-0.1-0.751-0.191-1.249-0.276
		c-0.504-0.082-1.009-0.097-1.528-0.05c-0.516,0.05-1.032,0.158-1.546,0.323c-0.513,0.164-0.962,0.452-1.323,0.851
		c-0.801,0.833-1.273,1.783-1.405,2.851c-0.132,1.068,0.018,2.082,0.452,3.05c0.331,0.669,0.282,1.332-0.15,2
		c-0.199,0.267-0.522,0.542-0.95,0.824c-0.434,0.285-0.912,0.543-1.425,0.777c-0.513,0.235-1.059,0.417-1.628,0.552
		c-0.566,0.129-1.065,0.196-1.502,0.196c-0.299,0-0.578-0.117-0.848-0.349c-0.264-0.235-0.446-0.487-0.551-0.751h-0.05
		c-0.367-1.035-0.991-1.924-1.874-2.675c-0.883-0.751-1.906-1.126-3.077-1.126c-1.132,0-2.158,0.376-3.074,1.126
		c-0.918,0.751-1.56,1.625-1.927,2.625c-0.167,0.402-0.416,0.692-0.751,0.877c-0.329,0.182-0.695,0.273-1.097,0.273
		c-0.466,0-0.992-0.082-1.575-0.252c-0.584-0.167-1.167-0.376-1.751-0.625c-0.584-0.249-1.109-0.543-1.575-0.877
		c-0.466-0.331-0.815-0.666-1.05-0.997c-0.167-0.235-0.258-0.51-0.276-0.824c-0.018-0.317,0.108-0.76,0.375-1.326
		c0.366-0.768,0.507-1.642,0.425-2.628c-0.082-0.982-0.507-1.892-1.276-2.725c-0.466-0.502-1.033-0.824-1.698-0.974
		c-0.669-0.152-1.299-0.208-1.901-0.176c-0.701,0.032-1.417,0.167-2.15,0.402c-0.466,0.132-0.933,0.097-1.402-0.103
		c-0.366-0.132-0.707-0.44-1.026-0.921c-0.317-0.484-0.598-1.021-0.851-1.601c-0.249-0.584-0.44-1.182-0.575-1.801
		c-0.132-0.616-0.167-1.123-0.1-1.525c0.1-0.733,0.431-1.2,1-1.399c1-0.402,1.898-1.059,2.698-1.977
		c0.801-0.918,1.2-1.942,1.2-3.077c0-1.164-0.399-2.182-1.2-3.05c-0.801-0.868-1.701-1.499-2.698-1.901
		c-0.293-0.094-0.542-0.334-0.742-0.718c-0.199-0.384-0.302-0.777-0.302-1.173c0-0.434,0.067-0.918,0.199-1.452
		c0.132-0.534,0.308-1.05,0.525-1.551c0.217-0.499,0.469-0.956,0.751-1.376c0.285-0.414,0.593-0.725,0.924-0.924
		c0.267-0.167,0.528-0.232,0.777-0.199c0.249,0.032,0.525,0.1,0.824,0.199c1,0.402,2.041,0.525,3.127,0.376
		c1.082-0.15,2.041-0.625,2.874-1.423c0.399-0.402,0.689-0.894,0.874-1.475c0.182-0.587,0.302-1.162,0.349-1.728
		c0.053-0.566,0.053-1.082,0-1.548c-0.047-0.469-0.091-0.801-0.123-1c-0.067-0.199-0.126-0.434-0.176-0.701
		c-0.05-0.267-0.023-0.501,0.073-0.701c0.2-0.466,0.557-0.874,1.076-1.223c0.516-0.349,1.073-0.642,1.675-0.877
		c0.601-0.232,1.185-0.405,1.751-0.525c0.566-0.118,1.018-0.176,1.349-0.176c0.431,0,0.774,0.141,1.027,0.425
		c0.249,0.285,0.422,0.578,0.522,0.877c0.367,0.901,0.968,1.689,1.801,2.376c0.833,0.683,1.818,1.027,2.951,1.027
		c1.167,0,2.2-0.326,3.1-0.977c0.901-0.651,1.534-1.475,1.901-2.475c0.132-0.267,0.343-0.542,0.625-0.824
		c0.281-0.285,0.572-0.425,0.877-0.425c0.464,0,0.974,0.065,1.525,0.199c0.552,0.132,1.094,0.317,1.622,0.552
		c0.54,0.232,1.033,0.534,1.478,0.9c0.452,0.367,0.806,0.766,1.076,1.2c0.167,0.267,0.217,0.557,0.15,0.874
		c-0.068,0.317-0.132,0.542-0.2,0.675c-0.434,0.968-0.566,1.983-0.402,3.05c0.167,1.065,0.654,2,1.449,2.801
		c0.801,0.801,1.786,1.241,2.951,1.326c1.167,0.082,2.252-0.108,3.253-0.575c0.264-0.167,0.59-0.235,0.974-0.199
		s0.704,0.185,0.973,0.449c0.499,0.466,0.939,1.176,1.323,2.126c0.384,0.95,0.642,1.909,0.774,2.874
		c0.067,0.566-0.023,1.009-0.27,1.326c-0.252,0.314-0.51,0.525-0.78,0.625c-1.032,0.366-1.912,1.009-2.646,1.924
		c-0.733,0.915-1.1,1.959-1.1,3.124c0,1.135,0.308,2.126,0.921,2.977c0.619,0.848,1.425,1.457,2.423,1.824
		c0.235,0.132,0.434,0.267,0.601,0.399C119.404,101.814,119.657,102.198,119.788,102.664L119.788,102.664L119.788,102.664
		L119.788,102.664z M96.539,107.163c1.499,0,2.918-0.285,4.247-0.851c1.335-0.566,2.493-1.349,3.478-2.349
		c0.986-1.003,1.76-2.159,2.326-3.476c0.566-1.317,0.848-2.728,0.848-4.223c0-1.502-0.282-2.91-0.848-4.224
		c-0.566-1.317-1.34-2.47-2.326-3.452c-0.985-0.982-2.141-1.76-3.478-2.326c-1.329-0.566-2.751-0.851-4.247-0.851
		c-1.499,0-2.91,0.285-4.226,0.851c-1.314,0.566-2.466,1.343-3.446,2.326c-0.982,0.983-1.76,2.135-2.326,3.452
		c-0.566,1.314-0.851,2.725-0.851,4.224c0,1.498,0.285,2.907,0.851,4.223c0.566,1.314,1.343,2.473,2.326,3.476
		c0.983,1,2.135,1.78,3.45,2.349C93.632,106.878,95.04,107.163,96.539,107.163L96.539,107.163L96.539,107.163L96.539,107.163z"/>
</g>
</svg>
