<?xml version="1.0" encoding="utf-8"?>
<!-- Generator: Adobe Illustrator 17.0.0, SVG Export Plug-In . SVG Version: 6.00 Build 0)  -->
<!DOCTYPE svg PUBLIC "-//W3C//DTD SVG 1.1//EN" "http://www.w3.org/Graphics/SVG/1.1/DTD/svg11.dtd">
<svg version="1.1" id="图层_1" xmlns="http://www.w3.org/2000/svg" xmlns:xlink="http://www.w3.org/1999/xlink" x="0px" y="0px"
	 width="120px" height="120px" viewBox="0 0 120 120" enable-background="new 0 0 120 120" xml:space="preserve">
<g>
	<path fill="#ffffff" fill-rule="evenodd" clip-rule="evenodd" d="M25.175,100.355c-1.308-0.577-2.21-0.938-3.059-1.389
		c-1.669-0.893-3.311-1.823-4.935-2.788c-2.346-1.371-2.634-2.427-1.254-4.791c3.69-6.315,7.398-12.613,11.115-18.91
		C33.718,61.154,40.386,49.822,47.071,38.5c1.813-3.059,2.644-3.293,5.72-1.579c1.588,0.875,3.158,1.768,4.718,2.661
		c2.626,1.498,2.914,2.517,1.362,5.161c-6.749,11.476-13.515,22.943-20.273,34.41c-3.627,6.171-7.218,12.342-10.908,18.459
		C27.078,98.65,26.041,99.435,25.175,100.355L25.175,100.355 M59.774,22.576c5.052-1.064,7.984,0.397,10.456,4.953
		c8.544,15.752,17.647,31.189,26.507,46.761c1.931,3.383,1.407,5.341-1.696,7.199c-3.717,2.229-6.613,1.895-8.426-1.425
		c-3.158-5.756-6.234-11.575-9.004-17.539c-5.738-12.378-11.241-24.865-16.826-37.306C60.424,24.407,60.144,23.559,59.774,22.576
		L59.774,22.576 M32.031,54.442c-4.078,7.416-7.894,14.399-11.792,21.328c-0.298,0.532-1.29,0.956-1.958,0.974
		c-5.025,0.081-10.042,0.045-15.058,0.045c-2.021,0-3.04-0.965-3.04-3.004c0-5.44,0-10.872,0-16.303c0-1.877,0.83-3.022,2.761-3.022
		C12.481,54.433,22.026,54.442,32.031,54.442L32.031,54.442 M91.577,54.442c8.724,0,17.097-0.009,25.469,0.018
		c1.768,0,2.779,1.01,2.797,2.77c0.036,5.503,0.018,11.025,0,16.528c0,1.931-1.272,2.914-2.968,2.977
		c-4.43,0.135-8.869,0.072-13.316,0.018c-0.451,0-1.128-0.343-1.317-0.749c-3.194-6.379-6.324-12.766-9.473-19.163
		C92.434,56.192,92.118,55.533,91.577,54.442L91.577,54.442 M77.466,76.699H48.181c0.956-1.777,1.786-3.347,2.634-4.89
		c2.77-5.052,5.594-10.042,8.273-15.139c0.866-1.642,1.877-2.156,3.753-2.346c3.627-0.379,5.386,0.929,6.676,4.303
		C71.836,64.655,74.696,70.474,77.466,76.699L77.466,76.699 M113.527,113.067c-2.499-1.173-4.231-1.913-5.855-2.797
		c-1.507-0.803-3.103-1.597-4.358-2.707c-1.786-1.579-2.941-3.591-2.066-6.135c0.641-1.85,3.446-3.437,5.837-3.401
		c2.644,0.018,4.213,1.696,4.728,3.952C112.607,105.443,112.923,109.034,113.527,113.067L113.527,113.067 M100.003,98.514
		c-1.11-0.893-2.102-1.371-2.679-2.165c-1.407-1.931-2.644-3.97-3.934-5.973c-1.11-1.732-0.713-3.194,1.083-4.105
		c5.314-2.698,6.297-3.934,9.383,2.535c0.28,0.568,0.776,1.119,0.893,1.732c0.298,1.435,1.092,3.446,0.46,4.249
		C103.982,96.331,101.898,97.224,100.003,98.514L100.003,98.514 M10.216,110.504c0.469-3.645,0.857-7.073,1.353-10.475
		c0.217-1.507,1.227-1.904,2.526-1.2c2.31,1.236,4.61,2.49,6.866,3.834c1.417,0.83,1.507,1.913,0.117,2.878
		c-2.905,1.994-5.855,3.934-8.815,5.837C10.947,112.264,10.333,111.722,10.216,110.504L10.216,110.504 M57.176,9.034
		c4.222,3.401,6.27,7.885,9.257,12.387c-2.418,0-4.403,0.018-6.387-0.027c-0.334-0.009-0.893-0.271-0.947-0.523
		c-0.92-3.446-1.759-6.911-2.589-10.393C56.454,10.243,56.761,9.909,57.176,9.034L57.176,9.034 M57.176,9.034L57.176,9.034z"/>
</g>
</svg>
