<?xml version="1.0" encoding="utf-8"?>
<!-- Generator: Adobe Illustrator 17.0.0, SVG Export Plug-In . SVG Version: 6.00 Build 0)  -->
<!DOCTYPE svg PUBLIC "-//W3C//DTD SVG 1.1//EN" "http://www.w3.org/Graphics/SVG/1.1/DTD/svg11.dtd">
<svg version="1.1" id="图层_1" xmlns="http://www.w3.org/2000/svg" xmlns:xlink="http://www.w3.org/1999/xlink" x="0px" y="0px"
	 width="120px" height="120px" viewBox="0 0 120 120" enable-background="new 0 0 120 120" xml:space="preserve">
<g enable-background="new    ">
	<path fill="#ffffff" d="M111.127,28.162c2.357,0,4.361,0.824,6.008,2.469c1.645,1.647,2.469,3.649,2.469,6.007
		c0,2.359-0.824,4.383-2.469,6.074L90.371,69.409l10.01,10.012L89.703,90.1c-7.254,7.253-15.918,11.402-25.996,12.447
		c-10.079,1.045-19.234-1.189-27.465-6.708L12.081,120H0v-12.08l24.161-24.161c-5.518-8.231-7.754-17.387-6.708-27.465
		c1.045-10.078,5.195-18.743,12.448-25.996L40.58,19.619L50.592,29.63L77.289,2.867c1.689-1.646,3.715-2.47,6.074-2.47
		c2.357,0,4.359,0.824,6.006,2.47c1.646,1.646,2.469,3.66,2.469,6.04c0,2.381-0.822,4.395-2.469,6.04L62.672,41.711l15.617,15.618
		l26.766-26.698C106.744,28.986,108.768,28.162,111.127,28.162z"/>
</g>
</svg>
