<?xml version="1.0" encoding="utf-8"?>
<!-- Generator: Adobe Illustrator 17.0.0, SVG Export Plug-In . SVG Version: 6.00 Build 0)  -->
<!DOCTYPE svg PUBLIC "-//W3C//DTD SVG 1.1//EN" "http://www.w3.org/Graphics/SVG/1.1/DTD/svg11.dtd">
<svg version="1.1" id="图层_1" xmlns="http://www.w3.org/2000/svg" xmlns:xlink="http://www.w3.org/1999/xlink" x="0px" y="0px"
	 width="120px" height="120px" viewBox="0 0 120 120" enable-background="new 0 0 120 120" xml:space="preserve">
<g>
	<path fill="#ffffff" fill-rule="evenodd" clip-rule="evenodd" d="M106.199,1.904H13.827C7.264,1.904,1.93,7.238,1.93,13.801v92.389
		c0,6.563,5.334,11.897,11.897,11.897h92.381c6.563,0,11.897-5.334,11.897-11.897V13.793C118.096,7.23,112.762,1.904,106.199,1.904
		L106.199,1.904z M95.679,34.915l-0.246,0.131L95.4,35.325c-2.532,17.477-17.747,30.66-35.387,30.66s-32.856-13.183-35.387-30.66
		l-0.041-0.279l-0.246-0.131c-1.753-1.041-2.802-2.802-2.802-4.736c0-3.064,2.491-5.555,5.563-5.555
		c3.064,0,5.555,2.491,5.555,5.555c0,1.614-0.729,3.122-2.065,4.228l-0.262,0.205l0.057,0.328
		c2.335,14.658,14.797,25.293,29.627,25.293S87.305,49.59,89.64,34.94l0.057-0.32l-0.254-0.205
		c-1.344-1.114-2.065-2.614-2.065-4.228c0-3.064,2.491-5.555,5.555-5.555l0,0l0,0l0,0c3.073,0,5.563,2.491,5.563,5.555
		C98.489,32.113,97.44,33.875,95.679,34.915L95.679,34.915z"/>
</g>
</svg>
