<?xml version="1.0" encoding="utf-8"?>
<!-- Generator: Adobe Illustrator 17.0.0, SVG Export Plug-In . SVG Version: 6.00 Build 0)  -->
<!DOCTYPE svg PUBLIC "-//W3C//DTD SVG 1.1//EN" "http://www.w3.org/Graphics/SVG/1.1/DTD/svg11.dtd">
<svg version="1.1" id="图层_1" xmlns="http://www.w3.org/2000/svg" xmlns:xlink="http://www.w3.org/1999/xlink" x="0px" y="0px"
	 width="120px" height="120px" viewBox="0 0 120 120" enable-background="new 0 0 120 120" xml:space="preserve">
<g>
	<path fill="#ffffff" fill-rule="evenodd" clip-rule="evenodd" d="M71.083,2.24c-0.297-0.063-0.591-0.097-0.885-0.11
		c-2.649-0.101-4.966,1.71-5.5,4.311c-0.294,1.411-0.02,2.854,0.776,4.063c0.793,1.207,2.009,2.032,3.422,2.32
		c11.373,2.347,21.166,8.996,27.57,18.719c6.402,9.728,8.633,21.348,6.293,32.721c-0.294,1.416-0.02,2.856,0.776,4.061
		c0.793,1.207,2.009,2.031,3.422,2.323c0.297,0.059,0.597,0.094,0.888,0.108c1.133,0.043,2.229-0.266,3.177-0.888
		c1.207-0.795,2.032-2.012,2.323-3.424C119.39,37.095,100.433,8.29,71.083,2.24L71.083,2.24L71.083,2.24z M80.387,83.42
		c0.319,0.208,7.452,4.788,12.932,10.416c2.063,2.129,5.519,5.691,5.428,9.824c-0.077,2.823-1.67,5.654-4.872,8.642
		c-0.796,0.782-7.929,7.443-19.339,7.443c-3.125,0-6.336-0.497-9.544-1.473c-3.371-1.022-6.798-2.6-10.178-4.683
		c-13.342-7.88-23.64-18.026-33.418-32.908C4.59,55.102,4.107,33.196,4.185,29.068C4.213,10.015,20.082,2.52,21.891,1.726
		c2.489-1.154,4.664-1.71,6.667-1.71c0.959,0,1.878,0.13,2.728,0.39c1.749,0.531,4.178,1.906,5.811,5.443
		c2.226,4.798,4.332,11.676,5.771,18.877c1.513,7.473-2.677,9.571-6.73,11.599l-0.16,0.07c0,0-7.169,2.991-8.431,3.511
		c-1.239,0.517-1.884,1.912-1.461,3.188c2.891,8.759,7.306,17.842,12.763,26.267c5.368,8.29,11.753,15.94,18.46,22.133
		c0.479,0.437,1.096,0.682,1.747,0.682l0.22-0.011c0.705-0.057,1.37-0.414,1.812-0.982c1.09-1.401,2.763-3.421,4.526-5.1
		c3.345-3.181,6.37-4.725,9.247-4.725c0.788,0,1.57,0.116,2.323,0.346C77.906,81.923,79.074,82.551,80.387,83.42L80.387,83.42
		L80.387,83.42z M57.692,46.55c-1.416-0.294-2.632-1.116-3.425-2.322c-0.799-1.207-1.073-2.652-0.782-4.067
		c0.542-2.599,2.854-4.411,5.5-4.305c0.294,0.009,0.591,0.044,0.887,0.106c12.544,2.586,20.646,14.901,18.063,27.45
		c-0.288,1.407-1.11,2.621-2.317,3.422c-0.95,0.621-2.052,0.927-3.176,0.888c-0.291-0.016-0.588-0.049-0.885-0.111
		c-1.419-0.287-2.637-1.115-3.431-2.323c-0.793-1.203-1.067-2.643-0.776-4.058c0.668-3.248,0.034-6.564-1.798-9.341
		C63.725,49.116,60.936,47.218,57.692,46.55L57.692,46.55L57.692,46.55z M63.308,29.62c-2.917-0.605-4.801-3.466-4.201-6.382
		c0.536-2.604,2.848-4.418,5.497-4.315c0.291,0.013,0.591,0.047,0.887,0.11c10.152,2.093,18.885,8.024,24.605,16.707
		c5.711,8.678,7.706,19.048,5.611,29.2c-0.291,1.416-1.116,2.634-2.323,3.423c-0.95,0.626-2.043,0.933-3.173,0.889
		c-0.294-0.013-0.594-0.049-0.89-0.111c-2.911-0.598-4.798-3.46-4.198-6.381c1.51-7.325,0.071-14.814-4.056-21.083
		C76.939,35.411,70.637,31.129,63.308,29.62L63.308,29.62z"/>
</g>
</svg>
