<?xml version="1.0" encoding="utf-8"?>
<!-- Generator: Adobe Illustrator 17.0.0, SVG Export Plug-In . SVG Version: 6.00 Build 0)  -->
<!DOCTYPE svg PUBLIC "-//W3C//DTD SVG 1.1//EN" "http://www.w3.org/Graphics/SVG/1.1/DTD/svg11.dtd">
<svg version="1.1" id="图层_1" xmlns="http://www.w3.org/2000/svg" xmlns:xlink="http://www.w3.org/1999/xlink" x="0px" y="0px"
	 width="120px" height="120px" viewBox="0 0 120 120" enable-background="new 0 0 120 120" xml:space="preserve">
<g>
	<g transform="scale(0.1953125, 0.1953125)">
		<path fill="#ffffff" d="M572.439,140.031c0,0,0.337-8.287-9.266-16.948c-18.872-17.01-50.879-45.33-60.656-55.148
			c-5.493-5.508-18.133-8.746-26.548,0.115c-8.031,8.454-4.526,19.559,1.393,25.235c8.45,8.073,27.451,23.998,38.292,35.944
			c-9.016,11.17-23.939,22.877-33.242,33.205c-1.192,1.292-1.139,2.769-1.127,3.493c0.039,5.909,0.269,9.973,0.233,12.462
			c-0.043,2.168,2.495,2.956,3.619,2.956h47.104c3.16,0,3.976,3.19,3.976,3.19v304.484c0,17.001-9.208,22.354-18.657,22.354
			c-9.45,0-19.509-5.393-19.509-22.354V240.074c0-22.568-2.479-32.782-27.844-34.143c-6.21-0.332-31.181-0.092-44.722,0V47.202
			c0-20.927-16.904-37.885-37.745-37.885H96.331c-20.864,0-37.753,16.957-37.753,37.885v508.862H37.013
			c-8.591,0-15.535,6.978-15.535,15.586v22.989c0,8.618,6.944,16.346,15.535,16.346h409.418c8.578,0,15.535-7.728,15.535-16.346
			V571.65c0-8.608-6.957-15.586-15.535-15.586h-20.943V242.498c7.619,0.026,18.303,0,26.017,0c9.279,0,10.068,9.246,10.068,9.246
			v239.658c0,61.169,50.399,61.755,55.987,61.755c7.521,0,54.879,0,54.879-60.989V140.031L572.439,140.031z M357.796,236.24
			c0,13.949-11.271,25.258-25.175,25.258H150.24c-13.894,0-25.158-11.309-25.158-25.258V102.478
			c0-13.95,11.264-25.258,25.158-25.258h182.381c13.904,0,25.175,11.308,25.175,25.258V236.24L357.796,236.24z M235.162,438.251
			h-55.645l91.73-128.099l-25.378,88.945h51.09L209.11,528.633L235.162,438.251z"/>
	</g>
</g>
</svg>
