<?xml version="1.0" encoding="utf-8"?>
<!-- Generator: Adobe Illustrator 17.0.0, SVG Export Plug-In . SVG Version: 6.00 Build 0)  -->
<!DOCTYPE svg PUBLIC "-//W3C//DTD SVG 1.1//EN" "http://www.w3.org/Graphics/SVG/1.1/DTD/svg11.dtd">
<svg version="1.1" id="图层_1" xmlns="http://www.w3.org/2000/svg" xmlns:xlink="http://www.w3.org/1999/xlink" x="0px" y="0px"
	 width="120px" height="120px" viewBox="0 0 120 120" enable-background="new 0 0 120 120" xml:space="preserve">
<g>
	<path fill-rule="evenodd" clip-rule="evenodd" fill="#ffffff" d="M88.487,31.776h9.121v9.952h-9.121V31.776L88.487,31.776z M90.602,97.978H10.983
		C4.917,97.978,0,94.564,0,90.351V27.974c0-4.213,4.917-7.629,10.983-7.629h89.876c6.052,0,10.969,3.416,10.969,7.629v28.266
		c-3.429-1.963-7.392-3.1-11.626-3.1c-12.953,0-23.455,10.5-23.455,23.455C76.744,86.123,82.438,94.308,90.602,97.978L90.602,97.978
		z M85.14,43.413c0,0.919,0.746,1.664,1.664,1.664h12.487c0.92,0,1.665-0.746,1.665-0.396V31.364c0-2.19-0.746-2.935-1.665-2.935
		H86.804c-0.919,0-1.664,0.746-1.664,1.666V43.413L85.14,43.413z M12.54,44.982c0,0.345,0.341,0.625,0.76,0.625h18.809
		c0.419,0,0.76-0.281,0.76-0.625v-6.27c0.007-0.031,0.007-0.056,0.007-0.086c0-0.345-0.342-0.626-0.751-0.626H13.3
		c-0.42,0-0.76,0.281-0.76,0.626V44.982L12.54,44.982z M12.54,64.279c0,0.342,0.341,0.625,0.76,0.625H55.77
		c0.42,0,0.76-0.282,0.76-0.625v-6.272c0.008-0.031,0.008-0.054,0.008-0.088c0-0.343-0.342-0.623-0.751-0.623H13.3
		c-0.42,0-0.76,0.28-0.76,0.623V64.279L12.54,64.279z M68.369,77.217c0-0.344-0.343-0.624-0.751-0.624H13.3
		c-0.42,0-0.76,0.281-0.76,0.624v6.358c0,0.344,0.341,0.626,0.76,0.626h54.303c0.416,0,0.757-0.282,0.757-0.626v-6.27
		C68.369,77.271,68.369,77.247,68.369,77.217L68.369,77.217z M119.974,76.592c0,10.501-8.515,19.018-19.018,19.018
		c-10.504,0-19.018-8.517-19.018-19.018c0-10.504,8.514-19.018,19.018-19.018C111.46,57.574,119.974,66.089,119.974,76.592
		L119.974,76.592z M103.37,75.514l6.586-11.206h-3.317l-3.73,6.872c-0.996,1.863-1.602,3.102-1.824,3.715h-0.064
		c-0.657-1.492-2.507-5.021-5.557-10.588h-3.507l6.523,11.206l-5.348,0.001v2.475h6.27v3.414l-6.269-0.001v2.507h6.27v4.967h3.112
		v-4.969h6.048v-2.507h-6.047v-3.413l6.047-0.001l0.001-2.476h-5.194V75.514L103.37,75.514z"/>
</g>
</svg>
